<?xml version="1.0" standalone="no"?>
<!DOCTYPE svg PUBLIC "-//W3C//DTD SVG 20010904//EN"
 "http://www.w3.org/TR/2001/REC-SVG-20010904/DTD/svg10.dtd">
<svg version="1.0" xmlns="http://www.w3.org/2000/svg"
 width="1024.000000pt" height="1024.000000pt" viewBox="0 0 1024.000000 1024.000000"
 preserveAspectRatio="xMidYMid meet">

<g transform="translate(0.000000,1024.000000) scale(0.100000,-0.100000)"
fill="#000000" stroke="none">
<path d="M5064 7936 c-17 -8 -44 -30 -58 -49 l-27 -36 7 -593 c6 -502 5 -595
-7 -604 -13 -11 -298 -167 -774 -424 -115 -62 -302 -164 -415 -225 -257 -141
-295 -161 -510 -275 -96 -51 -190 -104 -208 -117 -47 -35 -65 -76 -60 -139 6
-67 28 -101 86 -127 l47 -22 1965 -3 c1372 -3 1975 -1 2000 7 20 6 51 26 70
46 31 32 35 42 38 104 4 64 2 70 -27 104 -19 21 -85 64 -164 107 -73 40 -204
112 -292 160 -250 137 -820 448 -925 504 -52 29 -197 108 -322 176 l-228 125
0 167 c0 122 3 167 12 170 7 3 224 2 483 0 358 -4 477 -2 494 7 12 7 31 31 42
54 17 38 19 69 19 324 0 354 11 331 -165 343 -66 5 -292 12 -502 16 l-383 7 0
38 c0 118 -101 198 -196 155z"/>
<path d="M4791 5031 c-13 -3 -34 -19 -45 -34 -21 -28 -21 -37 -24 -671 -2
-624 -2 -644 17 -667 l19 -24 344 -3 c220 -2 355 1 372 8 58 21 57 18 49 720
-7 594 -9 641 -26 657 -16 16 -46 18 -350 20 -183 1 -343 -2 -356 -6z"/>
<path d="M3411 5001 c-11 -11 -22 -39 -26 -63 -3 -24 -5 -316 -3 -650 l3 -607
23 -23 23 -23 353 0 354 0 25 23 24 22 6 593 c4 370 3 615 -3 652 -16 100 4
95 -406 95 -336 0 -355 -1 -373 -19z"/>
<path d="M6085 5000 c-27 -30 -34 -176 -34 -755 -1 -397 2 -526 12 -545 7 -13
28 -35 47 -48 l34 -23 338 3 c308 3 339 5 355 21 23 23 26 180 16 838 -8 459
-9 488 -27 508 -19 21 -26 21 -371 21 -337 0 -353 -1 -370 -20z"/>
<path d="M3098 3321 c-59 -30 -71 -58 -76 -181 l-5 -110 -54 0 c-69 0 -118
-21 -137 -59 -24 -46 -23 -372 2 -421 35 -70 -158 -65 2282 -65 2046 0 2208 1
2242 17 21 9 47 32 58 50 19 31 20 46 18 225 l-3 193 -28 27 c-24 24 -36 28
-101 31 l-74 4 -4 107 c-5 123 -20 160 -73 185 -33 16 -171 17 -2026 15 -1803
-2 -1993 -3 -2021 -18z"/>
</g>
</svg>
